<svg height="200" viewBox="0 0 1024 1024" width="200" xmlns="http://www.w3.org/2000/svg"><path d="m959.761598 460.535325q-3.341293-17.51989-7.17064-34.95218c-25.116013-113.691569-63.209259-203.568602-116.469723-274.736896-71.844061-95.871339-191.116966-150.846249-327.296565-150.846249a521.016486 521.016486 0 0 0 -158.254659 24.815672c-62.120523 20.022731-147.66764 63.284344-202.567466 155.351363-51.183106 85.847459-73.83382 196.723331-82.793992 255.152163-13.302602 86.660882-35.390177 262.860914-33.888472 469.282755.175199 22.425459 16.994293 40.683686 37.542621 40.671172a34.639324 34.639324 0 0 0 10.424334-1.614333c15.242304-4.73037 34.839552-3.754262 53.235436 2.778154 15.70533 5.468708 30.397008 13.627971 45.952167 22.275288 14.579051 8.096692 29.646156 16.48121 45.714397 22.525573a175.436665 175.436665 0 0 0 100.501595 7.25824c20.3481-4.555171 40.045462-12.764491 58.991971-20.698499 31.360602-13.102375 60.731446-25.378811 91.165997-21.399293 24.515331 3.303751 46.665477 16.969264 70.079558 31.423173 22.375402 13.765627 45.526684 28.069366 71.869089 33.563103a123.890647 123.890647 0 0 0 25.353783 2.615469c39.845234 0 78.063622-18.320799 115.018075-36.028401 36.2912-17.382233 70.517555-33.788358 105.269508-33.788359a101.52776 101.52776 0 0 1 20.861183 2.127415c6.732643 1.42662 13.653 4.655285 20.961296 8.071664 11.262786 5.255967 22.988598 10.699647 36.2912 10.699647a51.571046 51.571046 0 0 0 5.794077-.362912c27.718968-3.478949 48.04204-30.922605 46.302566-62.571034-2.102387-37.980618-3.829347-77.813338-5.581337-117.983942-5.293509-121.137522-10.787246-246.467303-27.305999-333.628753zm-16.71898 487.841323c-9.185428 1.038679-18.77131-3.604092-29.220673-8.459604-8.171777-3.754262-16.606352-7.73378-25.891894-9.711024a124.528872 124.528872 0 0 0 -25.466411-2.602955c-39.857749 0-78.063622 18.320799-115.030589 36.028401-36.2912 17.369719-70.505041 33.788358-105.256993 33.788359a101.690444 101.690444 0 0 1 -20.761069-2.114901c-22.437973-4.680313-42.861158-17.269605-64.485708-30.60975-24.490303-15.092133-49.794029-30.697349-79.102301-34.639324a113.42877 113.42877 0 0 0 -14.804307-.963594c-30.75992 0-59.855451 12.151295-87.987388 23.902135-18.083029 7.508524-36.791768 15.367446-55.21268 19.497134a152.96115 152.96115 0 0 1 -87.662019-6.344703c-14.503966-5.431166-28.181994-13.039803-42.648417-21.086439-15.742872-8.759945-32.011341-17.782688-49.543744-23.88962-22.888484-8.059149-47.453872-9.247999-67.351461-3.00341-8.409547 2.565412-16.869151-4.505114-16.944236-13.765627-1.489191-204.444597 20.385643-378.917668 33.550588-464.727584 8.647317-56.389016 30.422037-163.222799 79.202415-245.040684 50.832708-85.246776 130.836032-125.542522 189.077151-144.338861a498.340743 498.340743 0 0 1 151.321788-23.776993c128.89633 0 241.273907 51.420876 308.425141 141.085168 50.95785 68.039742 87.499334 154.45034 111.714324 264.149877q3.754262 17.031835 6.995442 34.126242c16.193384 85.096606 21.574493 209.387708 26.792917 329.549122 1.739475 40.283232 3.478949 80.22858 5.59385 118.334339.95108 17.232063-10.161536 32.712137-25.303726 34.614296z" fill="#684c4b"/><path d="m495.409441 229.998607c131.324086 0 238.771066 100.113654 238.771065 222.490083v102.478839c0 122.363914-160.60733 222.490083-238.771065 222.490083s-238.78358-100.676794-238.78358-222.490083v-102.528896c0-122.313857 107.44698-222.440026 238.78358-222.440026z" fill="#f0d0d3"/><path d="m495.409441 788.770455c-84.796265 0-250.934875-105.845161-250.934875-233.802926v-102.528896c0-128.89633 112.56529-233.81544 250.934875-233.81544s250.922361 104.91911 250.92236 233.81544v102.478839c0 128.007821-166.126095 233.852983-250.92236 233.852983zm0-547.446491c-124.966869 0-226.632285 94.720031-226.632286 211.164726v102.478839c0 113.416256 151.997556 211.164726 226.632286 211.164726s226.619771-97.748469 226.61977-211.164726v-102.528896c0-116.382123-101.665416-211.114669-226.61977-211.114669z" fill="#684c4b"/><path d="m585.248931 750.577096v50.056827c0 46.039767-179.691495 46.039767-179.691495 0v-50.156941c33.05002 17.169492 65.461816 26.98063 89.852005 26.98063s56.78947-9.748567 89.83949-26.880516z" fill="#f0d0d3"/><path d="m495.409441 846.523519c-24.940814 0-48.354895-3.303751-65.94987-9.323084-29.796326-10.17405-36.05343-25.478925-36.05343-36.52897v-69.478876l18.070514 9.385655c31.285517 16.268469 61.820182 25.55401 83.932786 25.554011s52.722353-9.273027 83.945299-25.441383l18.058-9.360626v69.341219c0 33.850929-54.949882 45.852054-102.003299 45.852054zm-77.700711-77.475454v31.585858c0 10.974959 31.911227 23.213854 77.700711 23.213853s77.70071-12.238894 77.70071-23.213853v-31.47323c-28.670048 12.726948-55.750791 19.609762-77.70071 19.609762s-49.030662-6.907842-77.700711-19.72239z" fill="#684c4b"/><path d="m811.092821 922.096814c-23.451624-39.419751-57.803121-69.278649-102.616495-86.77351l-1.251421-.488054c-38.794041-15.017048-81.342344-20.423186-123.102252-21.098953v.150171a76.874772 76.874772 0 0 0 1.126278-13.215003v-50.056827c72.757598-34.501668 133.15116-81.705256 146.291078-162.271719 51.696188 1.564276 84.646095-32.887335 84.646094-95.520941 0-9.185428-4.167231-15.692815-10.687132-20.848668-9.585882-22.187689-35.164921-31.197918-63.409486-32.411796a42.410647 42.410647 0 0 1 -9.298056-11.03753c-3.178609 0-311.716377 4.092146-395.086023-142.661958-49.068205 68.052257-76.799687 166.839405-81.029489 235.267088h-3.053466q-10.549476-42.022706-16.856637-80.541435c-30.597236 4.01706-55.387879 18.883938-55.387879 52.234299 0 62.571034 26.279834 97.085216 77.950994 95.520941 17.019321 104.368485 148.981632 163.185257 146.228507 162.134063v50.194483a79.227443 79.227443 0 0 0 1.10125 13.064832c-41.847508.700796-83.594901 6.257103-122.639227 20.91124l-3.06598 1.251421c-40.320774 16.406125-73.183081 42.335562-96.071566 77.763281 44.675718-251.322816-177.163626-795.077615 317.522969-792.674888s269.468415 543.441945 308.687939 801.109463z" fill="#b69058"/><path d="m811.092821 933.409657a12.301465 12.301465 0 0 1 -10.624561-5.83162c-22.675743-38.080731-55.187652-65.611986-96.659734-81.80537l-1.188849-.463026c-32.924878-12.739463-71.330979-19.359478-117.320689-20.235472a12.514207 12.514207 0 0 1 -3.191123-.0876c-6.594987-1.026165-11.075073-6.745157-10.011365-12.902147a66.81335 66.81335 0 0 0 .988622-11.412957v-50.056827a11.262786 11.262786 0 0 1 6.63253-10.08645c85.960087-40.771286 129.071529-88.237672 139.771176-153.924744a11.976096 11.976096 0 0 1 12.414093-9.610911c19.697362.600682 35.790631-4.617742 47.879355-15.517616 15.842986-14.291224 24.227504-38.043189 24.227504-68.677967 0-5.080768-1.852103-8.622288-6.394759-12.22638a11.262786 11.262786 0 0 1 -3.416379-4.405001c-8.384519-19.422049-33.28779-24.490303-52.684811-25.316241a12.651863 12.651863 0 0 1 -7.683723-2.990895 56.952155 56.952155 0 0 1 -7.733779-8.034121c-52.034072-.312855-298.726631-8.434575-388.641207-132.43785-42.12282 66.513009-65.073875 155.739304-68.665452 214.368362-.375426 5.994305-5.693964 10.674618-12.138781 10.674619h-3.053467a11.98861 11.98861 0 0 1 -11.825925-8.759945c-6.119447-24.365161-11.175187-47.741699-15.017048-69.679104-33.212705 8.572232-33.212705 30.935119-33.212705 38.794041 0 33.012478 7.846408 57.565351 22.700771 70.930525 10.361763 9.348112 24.765615 13.765627 42.710988 13.265059a11.913525 11.913525 0 0 1 12.401579 9.623425c14.453909 88.600584 118.459482 143.400296 139.15798 153.486746a12.514207 12.514207 0 0 1 7.120583 10.386792h.0876v50.194483a66.951006 66.951006 0 0 0 .963594 11.262787 10.762218 10.762218 0 0 1 -2.703069 9.047771 12.514207 12.514207 0 0 1 -9.085314 4.054603c-45.664341.763367-84.345754 7.333325-118.271769 20.022731l-2.903296 1.138793c-38.743984 15.8555-69.203564 40.483459-90.327544 73.245652a12.664377 12.664377 0 0 1 -14.666651 4.780427 11.262786 11.262786 0 0 1 -7.783836-12.514207c11.613184-65.374216 4.755399-151.947499-2.502842-243.601549-13.665514-172.395713-29.158102-367.780024 78.839503-475.539859 56.476615-56.313931 139.470835-83.569873 253.199946-82.931648 114.129566.550625 196.848473 28.582448 252.862063 85.684774 107.559607 109.64948 89.639263 307.02355 73.83382 481.183766-8.296919 91.35371-16.143327 177.701737-6.031848 244.027032a11.262786 11.262786 0 0 1 -8.171777 12.339008 13.227517 13.227517 0 0 1 -3.879404.538111zm-213.705109-130.573234c44.062522 1.777017 81.642685 8.872573 114.53002 21.599521l1.251421.47554c32.18654 12.514207 59.530082 31.135347 81.71777 55.412908-3.065981-60.668875 3.366322-131.536828 10.11148-205.696018 3.554035-39.144439 7.220697-79.490242 9.523311-119.660845a85.096606 85.096606 0 0 1 -17.782688 22.838427c-14.441395 13.014775-33.275276 20.4357-54.949882 21.724663-18.29577 85.597175-89.038581 130.898603-144.376404 157.941805v43.199041c0 .700796-.012514 1.401591-.025028 2.164958zm-409.840273-236.418395c1.852103 33.650702 4.517629 67.276376 7.120584 100.051084 5.944248 75.085241 11.625698 146.716561 7.25824 207.360406 20.398157-20.360614 45.226343-36.566512 74.22176-48.367409l3.216151-1.251421c33.550588-12.61432 70.943038-19.63479 114.066995-21.374265v-45.626798c-31.373116-16.268469-124.291102-70.993095-144.226233-157.679006-20.022731-1.251421-36.804282-7.721266-49.844086-19.497134a74.534616 74.534616 0 0 1 -11.813411-13.615457zm628.050497-101.239933c.400455.350398.775881.700796 1.151307 1.063708-1.414105-101.302504-19.321935-194.520831-79.315043-255.665245-51.183106-52.184242-128.070392-77.800824-235.054346-78.313906h-3.278722c-105.031738 0-180.95543 24.803158-232.013395 75.748493-58.303689 58.191062-77.838366 146.341134-81.342344 242.775612 11.262786-11.262786 27.956738-18.633654 49.343518-21.44935 6.695101-.888509 12.726948 3.39135 13.765627 9.523311q1.739475 10.774732 3.891918 22.050033c12.113752-59.943051 36.954453-128.74616 74.947585-181.455999a12.514207 12.514207 0 0 1 10.724675-5.005683 12.22638 12.22638 0 0 1 10.111479 6.00682c77.988537 137.330905 371.584343 136.817823 383.985922 136.680166a12.676891 12.676891 0 0 1 11.050044 5.969277 28.782676 28.782676 0 0 0 4.004547 5.35608c33.488017 2.502841 57.50278 15.404989 68.027228 36.716683z" fill="#684c4b"/><path d="m495.409441 695.614699a167.690371 167.690371 0 0 1 -100.051084-32.874821 10.812275 10.812275 0 0 1 -2.014787-15.905557 12.777005 12.777005 0 0 1 17.069378-1.877131 142.962299 142.962299 0 0 0 169.980471 0 12.777005 12.777005 0 0 1 17.069378 1.877131 10.812275 10.812275 0 0 1 -2.014787 15.905557 167.690371 167.690371 0 0 1 -100.038569 32.874821z" fill="#684c4b"/><path d="m257.063858 439.386315c-.275313 4.34243-.437997 8.759945-.437997 13.102375v102.466325a206.897381 206.897381 0 0 0 2.703068 33.350361c-51.708703 1.564276-77.950994-32.887335-77.950994-95.520941 0-40.508487 36.541484-53.748518 75.685923-53.39812z" fill="#f0d0d3"/><path d="m255.950093 599.668276c-23.101226 0-42.135334-6.607501-56.626785-19.672333-20.022731-18.020458-30.034096-47.353759-30.034097-87.211508 0-17.882802 6.081905-32.536938 18.083029-43.637039 15.242304-14.065968 39.031811-21.486893 69.866817-21.086438l12.777005.125142-.763367 11.875982c-.262798 4.117174-.412969 8.259376-.412969 12.426608v102.466325a197.223899 197.223899 0 0 0 2.565413 31.635915l2.064844 12.61432-13.678028.412969c-1.326506.037543-2.590441.050057-3.841862.050057zm-11.463013-148.481064c-17.632517 1.414105-31.598372 6.257103-40.045462 14.103511-7.320811 6.757672-10.88736 15.767901-10.88736 27.531255 0 33.012478 7.846408 57.565351 22.700771 70.943038 7.64618 6.882814 17.51989 11.12513 29.308273 12.651864-.700796-7.133098-1.063708-14.291224-1.063708-21.424323v-102.553924c-.025028-.400455-.025028-.850966-.012514-1.251421z" fill="#684c4b"/><path d="m223.90121 543.90497a8.334462 8.334462 0 0 1 -7.721266-4.905569c-5.931734-14.116025-12.313979-42.623388 1.414105-59.980593 8.196805-10.374277 21.524436-15.017048 39.645008-13.765628a7.746294 7.746294 0 1 1 -1.251421 15.404989c-12.026153-.800909-20.485757 1.714446-25.028414 7.508524-8.759945 11.100101-4.417515 33.100077.663253 45.176287a7.508524 7.508524 0 0 1 -4.680313 10.011365 8.885087 8.885087 0 0 1 -3.040952.550625z" fill="#684c4b"/><path d="m733.80508 439.386315c.275313 4.34243.437997 8.759945.437997 13.102375v102.466325a206.897381 206.897381 0 0 1 -2.703068 33.350361c51.708703 1.564276 77.950994-32.887335 77.950994-95.520941 0-40.508487-36.566512-53.748518-75.685923-53.39812z" fill="#f0d0d3"/><g fill="#684c4b"><path d="m734.918844 599.668276h-3.754262l-13.678028-.412969 2.05233-12.614321a195.809794 195.809794 0 0 0 2.577927-31.635914v-102.566439c0-4.167231-.15017-8.309433-.412969-12.426608l-.763367-11.875982 12.777006-.125142c30.434551-.287827 54.624513 7.02047 69.866816 21.086439 12.001124 11.075073 18.083029 25.754238 18.083029 43.637039 0 39.845234-10.123993 69.191049-30.034096 87.198993-14.579051 13.127403-33.613159 19.734904-56.714386 19.734904zm11.463014-148.481064v103.81786c0 7.133098-.362912 14.291224-1.063708 21.424322 11.83844-1.526733 21.674606-5.769049 29.308273-12.664378 14.854363-13.390201 22.700771-37.918047 22.700771-70.930524 0-11.775869-3.554035-20.786097-10.88736-27.531255-8.44709-7.858922-22.425459-12.751977-40.057976-14.116025z"/><path d="m766.967728 543.90497a8.885087 8.885087 0 0 1 -3.028438-.538111 7.508524 7.508524 0 0 1 -4.680313-10.011365c5.080768-12.07621 9.46074-34.076185.663253-45.176287-4.592714-5.806592-13.077346-8.346976-25.028414-7.508524a8.071663 8.071663 0 0 1 -8.872573-7.133098 7.934007 7.934007 0 0 1 7.658695-8.27189c18.1456-1.251421 31.448202 3.403864 39.645007 13.765627 13.765627 17.357205 7.345839 45.864568 1.414106 59.980593a8.334462 8.334462 0 0 1 -7.771323 4.893055z"/></g></svg>