<svg height="200" viewBox="0 0 1024 1024" width="200" xmlns="http://www.w3.org/2000/svg"><path d="m511.959836 92.148888c162.408566 0 295.283434 132.874868 295.283434 295.283434v150.29252c0 100.315505-53.444481 194.593068-142.206231 241.450704-222.613934 117.452011-448.360636-44.059566-448.360636-255.708813v-136.034411c0-162.408566 132.874868-295.283434 295.283433-295.283434z" fill="#f0d0d3"/><path d="m511.49126 829.969224a301.977382 301.977382 0 0 1 -156.959693-43.872136c-91.934681-55.439277-149.047446-156.076091-149.047446-262.630355v-136.034411c0-168.995411 137.480304-306.489103 306.475715-306.489103s306.475715 137.493692 306.475715 306.489103v150.279132c0 106.795246-56.751291 203.080994-148.123681 251.304196-51.757606 27.311308-105.871481 40.953574-158.82061 40.953574zm.468576-726.628055c-156.638383 0-284.077765 127.439382-284.077765 284.091153v136.034411c0 98.789284 52.962517 192.089532 138.216639 243.499052 88.440441 53.310602 195.463281 54.154039 293.757213 2.275942 83.995659-44.327324 136.181678-133.022134 136.181678-231.490109v-150.319296c0-156.651771-127.439382-284.091153-284.077765-284.091153z" fill="#684c4b"/><path d="m623.079373 796.860957v52.654595a111.440846 111.440846 0 0 1 -111.119537 111.119536 111.440846 111.440846 0 0 1 -111.119536-111.119536v-52.654595a292.63263 292.63263 0 0 0 111.119536 21.835658 292.753121 292.753121 0 0 0 111.119537-21.835658z" fill="#f0d0d3"/><path d="m511.959836 971.827369a122.445697 122.445697 0 0 1 -122.298429-122.311817v-69.349302l15.436244 6.332475a283.609188 283.609188 0 0 0 213.737759 0l15.409468-6.332475v69.349302a122.445697 122.445697 0 0 1 -122.285042 122.311817zm-99.954031-158.767058v36.455241a99.913868 99.913868 0 1 0 199.814347 0v-36.455241a305.926811 305.926811 0 0 1 -199.814347 0zm99.954031-106.795246c-43.898911 0-85.856577-14.807013-121.347889-42.841267a11.205669 11.205669 0 0 1 13.883248-17.591696c31.488331 24.861323 68.653131 37.994849 107.464641 37.994849s75.97631-13.133526 107.464641-37.994849a11.205669 11.205669 0 0 1 13.883248 17.591696c-35.491312 28.034254-77.448978 42.841267-121.347889 42.841267z" fill="#684c4b"/><path d="m217.211918 370.041445c-.334697 5.756795-.535516 11.553754-.535515 17.404265v136.021023a294.359669 294.359669 0 0 0 3.346974 44.180057c-63.940591 2.088512-96.392851-43.644541-96.392852-126.7566-.013388-53.739014 45.210925-71.317322 93.581393-70.848745z" fill="#f0d0d3"/><path d="m215.859741 578.932786c-27.55229 0-50.191222-8.407599-67.381281-25.035366-23.92417-23.16106-36.053603-61.169296-36.053603-112.980454 0-22.679096 7.149136-41.248108 21.233203-55.211683 22.879914-22.638932 58.090081-27.016774 83.660962-26.869507l11.76796.120491-.69617 11.741185c-.32131 5.542589-.50874 11.111954-.508741 16.73487v136.034411a284.318747 284.318747 0 0 0 3.213095 42.560121l1.901082 12.464131-12.611398.415025c-1.52622.013388-3.025664.026776-4.525109.026776zm-10.30868-197.377751c-24.673892 1.445893-44.354099 8.434374-56.135448 20.081844-9.679449 9.599121-14.592807 22.759423-14.592807 39.293475 0 45.518846 9.840104 78.104985 29.239165 96.888203 11.085178 10.710317 25.570881 16.882137 43.175965 18.381582a307.921608 307.921608 0 0 1 -1.753815-32.733406v-136.034411c0-1.981409.026776-3.949429.06694-5.877287z" fill="#684c4b"/><path d="m176.204793 508.740047a10.24174 10.24174 0 0 1 -9.532182-6.519905c-7.349955-18.743054-15.248814-56.550473 1.740427-79.591042 10.134637-13.762757 26.641913-19.947965 49.013087-18.26109a10.24174 10.24174 0 1 1 -1.499445 20.42993c-14.914116-1.071032-25.343287 2.275942-31.006367 9.973982-10.870972 14.726686-5.448874 43.939075.83005 59.964386a10.268516 10.268516 0 0 1 -5.796959 13.294181 10.870972 10.870972 0 0 1 -3.748611.709558z" fill="#684c4b"/><path d="m806.774694 370.041445q.522128 8.635193.535516 17.404265v136.021023a294.359669 294.359669 0 0 1 -3.333587 44.180057c63.940591 2.088512 96.392851-43.644541 96.392852-126.7566.013388-53.739014-45.224313-71.317322-93.594781-70.848745z" fill="#f0d0d3"/><path d="m808.140259 578.932786h-4.538497l-12.59801-.415025 1.887694-12.464131a282.564933 282.564933 0 0 0 3.226483-42.586897v-136.034411c0-5.622916-.187431-11.192281-.522128-16.73487l-.696171-11.741185 11.767961-.120491c25.557493-.147267 60.794436 4.230575 83.674349 26.882895 14.084067 13.950188 21.233203 32.519199 21.233203 55.198295 0 51.79777-12.129434 89.819394-36.066991 112.980454-17.176671 16.627767-39.828991 25.035365-67.367893 25.035366zm10.30868-197.377751v141.911698a307.921608 307.921608 0 0 1 -1.767202 32.760181c17.618471-1.499444 32.13095-7.657877 43.189352-18.394969 19.399061-18.743054 29.239165-51.369357 29.239165-96.874815 0-16.4805-4.913358-29.694353-14.592807-39.293475-11.714409-11.701021-31.421392-18.702891-56.068508-20.10862z" fill="#684c4b"/><path d="m847.795207 508.740047a10.56305 10.56305 0 0 1 -3.748611-.709558 10.268516 10.268516 0 0 1 -5.796959-13.294181c6.278923-16.065475 11.687633-45.224313.83005-59.964386-5.676468-7.69804-16.065475-11.058402-31.019755-9.973982a10.24174 10.24174 0 1 1 -1.486057-20.42993c22.39795-1.686875 38.824898 4.498333 49.013087 18.247702 16.975852 23.053957 9.090381 60.888151 1.740427 79.60443a10.24174 10.24174 0 0 1 -9.532182 6.519905z" fill="#684c4b"/><path d="m313.618157 245.641115c-37.071084-14.994444-96.941755 142.808686-96.941754 232.842287h-7.83192c-22.853138-114.961863-6.760887-265.749735 17.993333-319.1005 9.706225-237.822584 518.499823-69.456404 646.635376-149.127774 6.051329 48.022383-11.393099 135.967472-45.947259 165.434231 12.129434 59.629689 13.9368 162.997634-12.718502 302.794043h-7.564161c-5.234667-90.890426-49.347785-247.83673-86.418868-232.842287-100.435996 40.645652-306.756861 40.645652-407.206245 0z" fill="#b69058"/><path d="m814.820819 488.725143h-7.564161a10.228353 10.228353 0 0 1 -10.228353-9.652673c-4.605436-79.8588-38.824898-204.647378-67.582098-222.828141-2.918561-1.860918-4.177024-1.33879-4.766091-1.097807-102.752102 41.582805-312.152183 41.582805-414.904285 0-1.59316-.669395-3.922654 0-6.881378 2.048348-30.002275 20.215723-75.962922 142.433825-75.962922 221.288532a10.24174 10.24174 0 0 1 -10.241741 10.241741h-7.845307a10.24174 10.24174 0 0 1 -10.040922-8.246944c-22.116804-111.119537-8.568253-263.928981 17.886229-323.545282 1.914469-36.147319 15.14171-65.761345 39.347027-87.87815 69.938369-63.88704 217.04457-56.617412 359.331128-49.535215 106.634591 5.274831 207.338345 10.268516 252.709924-17.93978a10.255128 10.255128 0 0 1 15.583511 7.430282c5.743407 45.679501-9.371527 134.093166-44.98333 170.320813 13.68243 73.847634 8.71552 183.06609-13.802921 301.09378a10.228353 10.228353 0 0 1 -10.05431 8.300496zm-88.909017-254.370024a26.775792 26.775792 0 0 1 14.499091 4.538497c31.461556 19.921189 60.379411 115.604482 72.09382 193.093624 22.116804-141.054872 11.232445-223.577863 4.993685-254.276309a10.255128 10.255128 0 0 1 3.400526-9.840103c26.775792-22.853138 44.688797-92.871834 43.483886-141.469897-54.502125 23.228-149.730229 18.51546-250.032345 13.535163-131.643181-6.506517-280.851282-13.910024-344.483952 44.180056-20.764627 18.957261-31.488331 43.684705-32.786957 75.601449a10.268516 10.268516 0 0 1 -.937153 3.88249c-19.53294 42.091545-35.57164 156.303686-24.700668 262.402761 12.477519-73.780695 46.442611-163.332331 79.979291-185.904323 11.192281-7.523998 20.349602-6.345863 26.039457-4.016369 97.089022 39.306863 302.445958 39.306863 399.53498 0a23.817067 23.817067 0 0 1 8.916339-1.700263z" fill="#684c4b"/><path d="m638.381738 929.481454a19.934577 19.934577 0 0 1 -3.400526-5.462261c-2.677579-7.778368 7.149136-12.477519 12.15621-18.743055 10.710317-13.227241 12.049106-15.489796 17.899617-29.761292 3.842326-9.371527.281146-21.795495-8.407599-27.766497-9.733-6.693948-22.759423-3.775387-33.536679 0a272.751605 272.751605 0 0 0 -87.918313 51.79777h-49.936852c-16.574215-11.312772-33.322473-22.545217-51.47646-31.019755-18.743054-8.742296-39.199759-14.499091-59.549361-13.61549a28.743813 28.743813 0 0 0 -10.402396 1.914469c-7.470446 3.30681-11.352936 11.875064-11.272608 20.081844s3.440689 16.172578 7.216076 23.643024c5.890674 11.674245 11.968779 16.065475 20.081844 26.481258a19.733759 19.733759 0 0 1 3.400525 5.462262c2.677579 7.778368-7.149136 12.464131-12.156209 18.743054-10.710317 13.227241-12.049106 15.489796-17.899617 29.761293-3.842326 9.371527-.281146 21.808883 8.407599 27.779884 9.733 6.693948 22.759423 3.775387 33.536679-.080327a272.577562 272.577562 0 0 0 86.365317-50.392041h8.246944a9.170709 9.170709 0 0 0 .977316 1.204911c5.435486 4.940134 13.669042 4.337678 20.804791 3.400526 4.859806-.629231 10.014146-1.472669 13.61549-4.605437h9.679449c15.97176 10.884359 32.13095 21.581288 49.535215 29.734517 18.743054 8.755684 39.213147 14.512479 59.562749 13.628879a28.743813 28.743813 0 0 0 10.415783-1.968021c7.470446-3.320198 11.352936-11.875064 11.272609-20.081844s-3.440689-16.172578-7.216076-23.643024c-5.850511-11.687633-11.928615-16.145803-20.001517-26.494647z" fill="#f0d0d3"/><path d="m485.732948 969.671918a30.243257 30.243257 0 0 0 17.725574 5.074013 74.209107 74.209107 0 0 0 9.505407-.736335c4.632212-.589067 11.192281-1.633323 16.98924-5.462261 15.021219 10.214965 31.675762 21.219815 49.709257 29.640802 20.992221 9.79994 41.194556 14.726686 60.125041 14.726685 1.552996 0 3.105992 0 4.6456-.093715a39.306863 39.306863 0 0 0 14.458928-2.905174c11.031626-4.886582 18.07366-16.828585 17.93978-30.444075-.107103-10.710317-4.310903-20.470093-8.407598-28.56977-4.592048-9.103769-9.264424-14.405376-14.217946-20.081844-2.168839-2.449985-4.471557-5.060625-7.162524-8.514702l-.57568-.76311c.870213-.910377 2.115288-2.021572 3.039053-2.86501a56.135448 56.135448 0 0 0 6.345862-6.412802c11.352936-14.084067 13.387896-17.404265 19.559716-32.545975 5.850511-14.311661.388249-32.438872-12.423967-41.23472-14.418764-9.933819-31.823029-5.475649-43.644541-1.258462a286.219828 286.219828 0 0 0 -89.913109 52.212794l-35.986665-1.151359a23.107508 23.107508 0 0 0 -4.190411.401637c-15.275589-10.415783-32.278217-21.741943-50.753514-30.363748-22.759423-10.589826-44.421039-15.476408-64.770641-14.659746a39.239923 39.239923 0 0 0 -14.472315 2.918561c-11.031626 4.886582-18.07366 16.841973-17.926393 30.444076.107103 10.710317 4.310903 20.456705 8.407599 28.583158 4.592048 9.076993 9.264424 14.3786 14.204557 19.988129 2.155451 2.463373 4.484945 5.074013 7.135749 8.501313l.615843.789886c-.883601.910377-2.115288 2.021572-3.039052 2.86501a57.567953 57.567953 0 0 0 -6.359251 6.42619c-11.339548 14.057291-13.387896 17.404265-19.53294 32.532587-5.863898 14.311661-.415025 32.425484 12.410579 41.248108a35.156615 35.156615 0 0 0 20.336214 5.984389c8.501314 0 16.761646-2.396433 23.308327-4.725927a286.500974 286.500974 0 0 0 86.914221-49.548603zm141.108424-111.253416c11.299384-4.016369 18.943873-4.484945 23.455593-1.338789 4.177024 2.86501 6.265535 9.692837 4.377842 14.298273-5.355158 13.160302-6.158432 14.432152-16.252905 26.963222a37.071084 37.071084 0 0 1 -3.936042 3.855714c-5.007073 4.538497-14.351824 12.972871-10.107861 25.437003a29.828232 29.828232 0 0 0 5.15434 8.755684c2.838234 3.641508 5.435486 6.586845 7.872083 9.371527 4.484945 5.100788 7.724816 8.769072 11.018238 15.315753 2.945337 5.810347 5.944226 12.571234 6.011165 18.743054 0 4.444781-1.887693 8.554866-4.605436 9.746389a19.613268 19.613268 0 0 1 -6.35925 1.01748c-16.600991.789886-34.915633-3.507629-54.34147-12.584623-17.002628-7.939022-33.309085-18.823382-47.995607-28.837528a67.434832 67.434832 0 0 0 .321309-9.92043l-.803274-29.65419a263.326526 263.326526 0 0 1 86.191275-51.168539zm-130.143737 81.264529 1.432505-28.797364 20.162171.642619.776498 28.221685c.147267 5.810347-.25437 9.22426-1.218298 10.134637s-5.609528 1.646711-7.778368 1.927857a53.953221 53.953221 0 0 1 -6.613621.535516c-1.820754 0-4.190411-.200818-5.221279-1.124584-2.008184-1.834142-1.673487-8.876175-1.539608-11.540366zm-128.871887 59.870671c-4.177024-2.878398-6.265535-9.692837-4.377842-14.298273 5.355158-13.187078 6.158432-14.44554 16.252906-26.963222a35.772458 35.772458 0 0 1 3.922653-3.869102c5.020461-4.525109 14.351824-12.959483 10.12125-25.437003a28.971407 28.971407 0 0 0 -5.167728-8.728908c-2.838234-3.654896-5.435486-6.613621-7.872083-9.371527-4.484945-5.0874-7.711428-8.755684-11.00485-15.275589-2.945337-5.823735-5.957614-12.59801-6.011166-18.743055 0-4.458169 1.887693-8.554866 4.592049-9.746388a19.399061 19.399061 0 0 1 6.372638-1.01748c16.66793-.736334 34.915633 3.494241 54.328082 12.571234 16.600991 7.751592 32.479036 18.274478 46.857636 28.114582l-1.552996 31.849804a64.784029 64.784029 0 0 0 .227594 10.937911 263.540732 263.540732 0 0 1 -83.232549 48.638226c-11.272608 3.976205-18.930485 4.418006-23.455594 1.33879z" fill="#684c4b"/></svg>