<svg height="200" viewBox="0 0 1024 1024" width="200" xmlns="http://www.w3.org/2000/svg"><path d="m554.211 91.25c-23.8933-19.456-58.2542-19.456-82.1475 0l-431.1035 350.321v507.79h944.353v-507.79z" fill="#dab55b"/><path d="m756.395 359.083c-22.642-86.016-110.706-137.216-196.723-114.574-47.4453 12.5155-84.4231 44.9422-104.107 86.016-37.4329-25.9413-85.4471-36.0675-133.006-23.552-86.016 22.6418-137.216 110.706-114.574 196.722 11.9467 45.1698 42.5529 77.3689 79.9858 101.035l282.0572 156.899 164.637-272.043c20.2525-36.7502 34.0195-84.0818 21.7315-130.503z" fill="#fff"/><path d="m576.512 785.977-329.501-189.099c-28.672-25.1449-47.6729-54.8409-56.5475-88.5191-12.1742-46.3075-5.68889-94.5497 18.432-135.851 24.1209-41.3013 62.8053-70.8835 109.113-83.0578 44.3733-11.7191 91.0222-5.91645 130.845 15.5875 24.0071-38.4569 61.7813-66.4462 106.155-78.1653 95.5734-25.2587 193.763 31.9715 218.909 127.545 10.5813 40.2773-3.75467 90.7947-9.78487 110.137-10.5813 33.6782-187.619 321.422-187.619 321.422zm-278.983-196.722 266.013 147.911 155.193-256.455c12.8569-23.2107 32.6542-69.2907 20.0249-116.963-20.0249-76.1173-98.3044-121.742-174.421-101.604-40.5049 10.6951-74.1831 38.4569-92.2738 76.3449l-9.216 19.2285-17.5218-12.1742c-34.4747-23.8933-77.4827-31.5165-117.987-20.8213-36.864 9.67116-67.8115 33.2231-86.9262 66.2187-19.2285 32.9955-24.4622 71.4525-14.6773 108.317 9.44353 35.84 32.9955 65.3085 71.7938 89.9982z" fill="#eccb90"/><path d="m985.316 441.571-472.178 289.679-.910222 109.454-1.024-109.454-470.243778-289.679v507.79l470.243.796445h1.935l472.178-.796445z" fill="#eccb90"/><path d="m463.189 536.69-422.229 412.672h944.353l-422.227-412.672c-27.7618-27.0791-72.1351-27.0791-99.8972 0z" fill="#dab55b"/><path d="m336.099 456.135 13.0845-2.95822 16.8391 75.2071 47.5591-10.6951 2.50311 11.264-60.6435 13.5395-19.3422-86.3573zm143.36-20.367c9.10222 6.48533 15.1325 16.384 18.0907 29.8098 2.95822 13.1982 1.70667 24.6898-3.75467 34.4747-5.68889 10.1262-15.1325 16.7253-28.2169 19.6835-13.1982 2.95822-24.4622 1.024-34.0195-5.91645-8.98845-6.48533-15.0187-16.384-17.8631-29.5822-2.95822-13.1982-1.82045-24.6898 3.64089-34.4747 5.46133-10.24 14.9049-16.9529 28.2169-19.9111 13.0845-2.95822 24.4622-1.024 33.9058 5.91645zm-50.6311 19.7973c-3.52711 6.94045-4.096 15.5875-1.82045 25.7138 2.27555 10.0124 6.48533 17.408 12.6293 22.3005 6.48533 5.00622 14.336 6.48533 23.4382 4.43733 9.216-2.048 15.5875-6.59911 19.3422-13.7671 3.64089-6.94045 4.20978-15.5875 1.93422-25.8275s-6.59911-17.8631-12.8569-22.7555c-6.25778-4.89245-13.9947-6.25778-23.3245-4.20978-9.32978 2.048-15.8151 6.82667-19.3422 14.1085zm64.5131-34.5873 14.336-3.18578 40.6187 66.1049.341333-.113778 8.41955-77.1413 14.336-3.18578-11.6053 93.2978-15.9289 3.52711-50.5173-79.3031zm87.04-19.456 62.1227-13.8809 2.50311 11.264-48.9245 10.9227 5.68889 25.1449 45.9662-10.24 2.50311 11.264-45.9662 10.24 6.144 27.4205 50.9725-11.3778 2.50311 11.264-64.1707 14.336-19.3422-86.3573z" fill="#eccb90"/></svg>