<?xml version="1.0" standalone="no"?><!DOCTYPE svg PUBLIC "-//W3C//DTD SVG 1.1//EN" "http://www.w3.org/Graphics/SVG/1.1/DTD/svg11.dtd"><svg t="1563430701905" class="icon" viewBox="0 0 1024 1024" version="1.1" xmlns="http://www.w3.org/2000/svg" p-id="35223" xmlns:xlink="http://www.w3.org/1999/xlink" width="200" height="200"><defs><style type="text/css"></style></defs><path d="M215.578947 443.83214v254.05979l-82.952982-200.254877a17.964912 17.964912 0 0 1 9.728-23.471158L215.578947 443.823158zM354.609404 386.245614l352.058385-145.830175a17.964912 17.964912 0 0 1 23.471158 9.728L786.50386 386.245614H354.609404z" fill="#FFA8A6" p-id="35224"></path><path d="M287.438596 458.105263v287.438597h574.877193V458.105263z" fill="#FFA8A6" p-id="35225"></path><path d="M287.438596 458.105263v287.438597h574.877193V458.105263H287.438596z m-17.964912-35.929824h610.807018a17.964912 17.964912 0 0 1 17.964912 17.964912v323.368421a17.964912 17.964912 0 0 1-17.964912 17.964912H269.473684a17.964912 17.964912 0 0 1-17.964912-17.964912V440.140351a17.964912 17.964912 0 0 1 17.964912-17.964912z" fill="#FF8080" p-id="35226"></path><path d="M339.536842 422.175439c1.176702 5.802667 1.796491 11.81193 1.796491 17.964912 0 49.610105-40.214456 89.824561-89.824561 89.824561V440.140351a17.964912 17.964912 0 0 1 17.964912-17.964912h70.063158z m470.680702 0H880.280702a17.964912 17.964912 0 0 1 17.964912 17.964912v89.824561c-49.610105 0-89.824561-40.214456-89.824561-89.824561 0-6.152982 0.619789-12.162246 1.796491-17.964912zM251.508772 682.666667c49.610105 0 89.824561 40.214456 89.824561 89.824561 0 3.027088-0.152702 6.027228-0.449122 8.982456H269.473684a17.964912 17.964912 0 0 1-17.964912-17.964912v-80.842105z m557.361403 98.807017a90.902456 90.902456 0 0 1-0.449122-8.982456c0-49.610105 40.214456-89.824561 89.824561-89.824561v80.842105a17.964912 17.964912 0 0 1-17.964912 17.964912h-71.410527zM592.842105 619.789474v-17.964913h44.912281v-17.964912h-44.912281l44.912281-53.894737h-35.929825l-26.947368 32.336842-26.947368-32.336842h-35.929825l44.912281 53.894737h-44.912281v17.964912h44.912281v17.964913h-44.912281v17.964912h44.912281v35.929825h35.929824v-35.929825h44.912281v-17.964912h-44.912281z m-17.964912 107.789473c-64.494035 0-116.77193-56.302035-116.77193-125.754386s52.277895-125.754386 116.77193-125.754386 116.77193 56.302035 116.77193 125.754386-52.277895 125.754386-116.77193 125.754386z" fill="#FF8080" p-id="35227"></path><path d="M350.315789 601.824561m-26.947368 0a26.947368 26.947368 0 1 0 53.894737 0 26.947368 26.947368 0 1 0-53.894737 0Z" fill="#FF8080" p-id="35228"></path><path d="M799.438596 601.824561m-26.947368 0a26.947368 26.947368 0 1 0 53.894737 0 26.947368 26.947368 0 1 0-53.894737 0Z" fill="#FF8080" p-id="35229"></path></svg>